# Blender 3.3.1
# www.blender.org
mtllib 16x16x16.mtl
o Untitled
v -0.500000 -0.000000 0.500000
v -0.500000 0.000000 -0.500000
v -0.500000 1.000000 0.500000
v -0.500000 1.000000 -0.500000
v 0.500000 -0.000000 0.500000
v 0.500000 0.000000 -0.500000
v 0.500000 1.000000 0.500000
v 0.500000 1.000000 -0.500000
v -0.500000 -0.000000 0.500000
v -0.500000 1.000000 0.500000
v 0.500000 -0.000000 0.500000
v 0.500000 1.000000 0.500000
v -0.500000 0.000000 -0.500000
v -0.500000 1.000000 -0.500000
v 0.500000 0.000000 -0.500000
v 0.500000 1.000000 -0.500000
v -0.500000 -0.000000 0.500000
v 0.500000 -0.000000 0.500000
v -0.500000 0.000000 -0.500000
v 0.500000 0.000000 -0.500000
v -0.500000 1.000000 0.500000
v 0.500000 1.000000 0.500000
v -0.500000 1.000000 -0.500000
v 0.500000 1.000000 -0.500000
vn -1.0000 -0.0000 -0.0000
vn 1.0000 -0.0000 -0.0000
vn -0.0000 -0.0000 1.0000
vn -0.0000 -0.0000 -1.0000
vn -0.0000 -1.0000 -0.0000
vn -0.0000 1.0000 -0.0000
vt 0.306641 0.500000
vt 0.306641 0.500000
vt 0.306641 0.500000
vt 0.306641 0.500000
vt 0.306641 0.500000
vt 0.306641 0.500000
vt 0.306641 0.500000
vt 0.306641 0.500000
vt 0.306641 0.500000
vt 0.306641 0.500000
vt 0.306641 0.500000
vt 0.306641 0.500000
vt 0.306641 0.500000
vt 0.306641 0.500000
vt 0.306641 0.500000
vt 0.306641 0.500000
vt 0.306641 0.500000
vt 0.306641 0.500000
vt 0.306641 0.500000
vt 0.306641 0.500000
vt 0.306641 0.500000
vt 0.306641 0.500000
vt 0.306641 0.500000
vt 0.306641 0.500000
s 0
usemtl palette
f 3/3/1 2/2/1 1/1/1
f 4/4/1 2/2/1 3/3/1
f 5/5/2 6/6/2 7/7/2
f 7/7/2 6/6/2 8/8/2
f 11/11/3 10/10/3 9/9/3
f 12/12/3 10/10/3 11/11/3
f 13/13/4 14/14/4 15/15/4
f 15/15/4 14/14/4 16/16/4
f 19/19/5 18/18/5 17/17/5
f 20/20/5 18/18/5 19/19/5
f 21/21/6 22/22/6 23/23/6
f 23/23/6 22/22/6 24/24/6
